<svg width="24" height="24" viewBox="0 0 24 24" fill="none" xmlns="http://www.w3.org/2000/svg">
<g id="eva:twitter-fill">
<g id="evaTwitterFill0">
<g id="evaTwitterFill1">
<path id="evaTwitterFill2" d="M8.08001 20C9.55871 20.0495 11.0323 19.802 12.4138 19.2723C13.7952 18.7425 15.0564 17.9413 16.1229 16.9158C17.1894 15.8903 18.0395 14.6615 18.623 13.3019C19.2065 11.9423 19.5115 10.4795 19.52 8.99998C20.1977 8.1614 20.7009 7.19581 21 6.15998C21.0223 6.07814 21.0205 5.99159 20.9948 5.91076C20.9691 5.82992 20.9206 5.75824 20.855 5.70435C20.7895 5.65046 20.7098 5.61666 20.6256 5.60701C20.5413 5.59736 20.456 5.61229 20.38 5.64998C20.0255 5.82064 19.6264 5.87576 19.2389 5.80759C18.8514 5.73942 18.495 5.55138 18.22 5.26998C17.869 4.88556 17.4443 4.57551 16.9713 4.35821C16.4982 4.14091 15.9863 4.02077 15.466 4.00492C14.9456 3.98906 14.4274 4.07782 13.942 4.26592C13.4565 4.45402 13.0138 4.73764 12.64 5.09998C12.1282 5.59564 11.7533 6.21527 11.5518 6.89866C11.3503 7.58204 11.329 8.30594 11.49 8.99998C8.14001 9.19998 5.84001 7.60998 4.00001 5.42998C3.94473 5.36738 3.87242 5.32224 3.79191 5.30005C3.7114 5.27787 3.62617 5.27961 3.54664 5.30506C3.4671 5.33051 3.39669 5.37858 3.34402 5.44338C3.29134 5.50818 3.25868 5.58692 3.25001 5.66998C2.89948 7.61441 3.15234 9.61953 3.97463 11.4161C4.79692 13.2126 6.14926 14.7145 7.85001 15.72C6.70965 17.0278 5.10822 17.8446 3.38001 18C3.28742 18.0153 3.20195 18.0593 3.13556 18.1256C3.06917 18.1919 3.02518 18.2774 3.00975 18.3699C2.99433 18.4625 3.00823 18.5576 3.04951 18.6419C3.0908 18.7262 3.15741 18.7954 3.24001 18.84C4.74353 19.5913 6.39924 19.9882 8.08001 20Z" fill="#EFFDF0"/>
</g>
</g>
</g>
</svg>
