<svg width="24" height="25" viewBox="0 0 24 25" fill="none" xmlns="http://www.w3.org/2000/svg">
<g id="solar:phone-bold">
<path id="Vector" d="M16.556 13.406L16.101 13.859C16.101 13.859 15.018 14.935 12.063 11.997C9.108 9.05898 10.191 7.98298 10.191 7.98298L10.477 7.69698C11.184 6.99498 11.251 5.86698 10.634 5.04298L9.374 3.35998C8.61 2.33998 7.135 2.20498 6.26 3.07498L4.69 4.63498C4.257 5.06698 3.967 5.62498 4.002 6.24498C4.092 7.83198 4.81 11.245 8.814 15.227C13.061 19.449 17.046 19.617 18.675 19.465C19.191 19.417 19.639 19.155 20 18.795L21.42 17.383C22.38 16.43 22.11 14.795 20.882 14.128L18.972 13.089C18.166 12.651 17.186 12.78 16.556 13.406Z" fill="white"/>
</g>
</svg>
